General
Complete name                    : Lady Chatterley.2006.DVDrip.NTSC.x264.AC3-UBY.mp4
Format                           : MPEG-4
Format profile                   : Base Media / Version 2
Codec ID                         : mp42
File size                        : 1.68 GiB
Duration                         : 2h 41mn
Overall bit rate mode            : Variable
Overall bit rate                 : 1 497 Kbps
Encoded date                     : UTC 2013-02-08 20:42:26
Tagged date                      : UTC 2013-02-08 21:39:50
Writing application              : HandBrake 0.9.8 2012071700

Video
ID                               : 1
Format                           : AVC
Format/Info                      : Advanced Video Codec
Format profile                   : Main@L3.0
Format settings, CABAC           : Yes
Format settings, ReFrames        : 4 frames
Codec ID                         : avc1
Codec ID/Info                    : Advanced Video Coding
Duration                         : 2h 41mn
Bit rate mode                    : Variable
Bit rate                         : 1 269 Kbps
Width                            : 720 pixels
Height                           : 432 pixels
Display aspect ratio             : 1.667
Frame rate mode                  : Constant
Frame rate                       : 29.970 fps
Color space                      : YUV
Chroma subsampling               : 4:2:0
Bit depth                        : 8 bits
Scan type                        : Progressive
Bits/(Pixel*Frame)               : 0.136
Stream size                      : 1.43 GiB (85%)
Writing library                  : x264 core 120

Audio
ID                               : 2
Format                           : AC-3
Format/Info                      : Audio Coding 3
Mode extension                   : CM (complete main)
Codec ID                         : ac-3
Duration                         : 2h 41mn
Bit rate mode                    : Constant
Bit rate                         : 224 Kbps
Channel(s)                       : 2 channels
Channel positions                : Front: L R
Sampling rate                    : 48.0 KHz
Bit depth                        : 16 bits
Compression mode                 : Lossy
Stream size                      : 258 MiB (15%)
Language                         : French

Lady Chatterley_eng.sub